<svg width="454.5px" height="127.1px" xmlns="http://www.w3.org/2000/svg" viewBox="22.750634765624994 11.471240234375003 454.49873046875 127.05751953125" style="background: rgba(0, 0, 0, 0)" preserveAspectRatio="xMidYMid"><defs><linearGradient id="editing-gradow-gradient" x1="0" x2="1" y1="0.5" y2="0.5" gradientUnits="objectBoundingBox"><stop offset="0" stop-color="#ff00ff"></stop><stop offset="1" stop-color="#ffc500"></stop></linearGradient><filter id="editing-gradow-filter" x="-100%" y="-100%" width="300%" height="300%"><feFlood flood-color="#fffcd9" result="flood"></feFlood><feComposite operator="in" in2="SourceAlpha" in="flood" result="shadow"></feComposite><feOffset dx="-4" dy="-4" in="SourceGraphic" result="offset-1"></feOffset><feOffset dx="4" dy="4" in="shadow" result="offset-2"></feOffset><feMerge><feMergeNode in="offset-2"></feMergeNode><feMergeNode in="offset-1"></feMergeNode></feMerge></filter></defs><style>    text {
  font-size: 64px;
  font-family: Arial Black;
  dominant-baseline: central;
  text-anchor: middle;
}</style><g transform="matrix(1.1,-0.1,0.1,1.8,88.1,156.5)">    <path fill="url(#editing-gradow-gradient)" d="M 27.1 -55.9 L 27.1 -55.9 L 27.1 -55.9 Q 27.1 -36.1 28 -29.9 L 28 -29.9 L 28 -29.9 Q 28 -28.4 25 -27.4 L 25 -27.4 L 25 -27.4 Q 22.1 -26.4 20.2 -26.4 L 20.2 -26.4 L 20.2 -26.4 Q 18.3 -26.4 18.3 -27 L 18.3 -27 L 18.3 -27 Q 18.3 -27.4 18.5 -27.9 L 18.5 -27.9 L 18.5 -27.9 Q 19.7 -30.6 19.7 -49.6 L 19.7 -49.6 L 19.7 -49.6 Q 19.7 -67.5 18.1 -69.5 L 18.1 -69.5 L 17.9 -69.9 L 17.9 -69.9 Q 17.5 -70.2 17.5 -70.7 L 17.5 -70.7 L 17.5 -70.7 Q 17.5 -71.1 18.2 -71.5 L 18.2 -71.5 L 18.2 -71.5 Q 19.2 -72 21.6 -72.6 L 21.6 -72.6 L 21.6 -72.6 Q 24.1 -73.2 26.1 -73.2 L 26.1 -73.2 L 26.1 -73.2 Q 28.1 -73.2 28.1 -72.3 L 28.1 -72.3 L 28.1 -72.1 L 28.1 -72.1 Q 27.3 -65.4 27.1 -55.9 Z M 47 -27.2 L 47 -27.2 L 47 -27.2 Q 47.9 -31.7 47.9 -39.7 L 47.9 -39.7 L 47.9 -39.7 Q 47.9 -47.8 47.8 -49.3 L 47.8 -49.3 L 47.8 -49.3 Q 47.8 -50.8 46.9 -51.7 L 46.9 -51.7 L 46.9 -51.7 Q 46.1 -52.6 45.5 -52.7 L 45.5 -52.7 L 45.5 -52.7 Q 44.9 -52.8 43.8 -52.8 L 43.8 -52.8 L 43.8 -52.8 Q 42.7 -52.8 41.7 -51.8 L 41.7 -51.8 L 41.7 -51.8 Q 40.7 -50.9 40.5 -49.8 L 40.5 -49.8 L 40.2 -48.8 L 40.2 -48.8 Q 40 -46.9 40 -40.3 L 40 -40.3 L 40 -40.3 Q 40 -33.7 40.3 -32 L 40.3 -32 L 40.3 -32 Q 40.6 -30.3 40.6 -29.7 L 40.6 -29.7 L 40.6 -29.7 Q 40.6 -29.2 40.1 -28.6 L 40.1 -28.6 L 40.1 -28.6 Q 37.9 -26.3 33.9 -26.3 L 33.9 -26.3 L 33.9 -26.3 Q 32.5 -26.3 32.5 -27.1 L 32.5 -27.1 L 32.5 -27.1 Q 33.8 -34.8 33.8 -46.7 L 33.8 -46.7 L 33.8 -46.7 Q 33.8 -51.1 33.6 -52.6 L 33.6 -52.6 L 33.4 -54.7 L 33.4 -54.7 Q 33.3 -55.4 33.1 -56.2 L 33.1 -56.2 L 33.1 -56.2 Q 33.1 -57 35.1 -57 L 35.1 -57 L 35.1 -57 Q 38 -57 39 -54.8 L 39 -54.8 L 39 -54.8 Q 39.1 -54.6 39.3 -54.6 L 39.3 -54.6 L 39.3 -54.6 Q 39.4 -54.6 40.2 -55.1 L 40.2 -55.1 L 40.2 -55.1 Q 42.3 -56.7 45.8 -56.7 L 45.8 -56.7 L 45.8 -56.7 Q 47.9 -56.7 49.9 -56 L 49.9 -56 L 49.9 -56 Q 51.9 -55.2 52.6 -53.9 L 52.6 -53.9 L 52.6 -53.9 Q 52.7 -53.8 52.8 -53.8 L 52.8 -53.8 L 52.8 -53.8 Q 53 -53.8 53.2 -54.1 L 53.2 -54.1 L 53.2 -54.1 Q 55.9 -56.7 60.2 -56.7 L 60.2 -56.7 L 60.2 -56.7 Q 65.9 -56.7 68 -52.6 L 68 -52.6 L 68 -52.6 Q 68.8 -51 68.8 -48.6 L 68.8 -48.6 L 68.8 -48.6 Q 68.8 -46.2 68.4 -41.7 L 68.4 -41.7 L 68.4 -41.7 Q 68 -37.2 68 -34.9 L 68 -34.9 L 68 -34.9 Q 68 -32.5 68.5 -30.6 L 68.5 -30.6 L 68.5 -30.6 Q 69 -28.6 69.4 -27.8 L 69.4 -27.8 L 69.4 -27.8 Q 69.9 -27 69.9 -26.9 L 69.9 -26.9 L 69.9 -26.9 Q 69.9 -26 68.1 -26 L 68.1 -26 L 68.1 -26 Q 63.7 -26 62 -27.8 L 62 -27.8 L 62 -27.8 Q 60.2 -29.6 60.2 -32.5 L 60.2 -32.5 L 60.2 -32.5 Q 60.2 -35.4 61.4 -40.4 L 61.4 -40.4 L 61.4 -40.4 Q 62.6 -45.3 62.6 -47.8 L 62.6 -47.8 L 62.6 -47.8 Q 62.6 -52.9 58.5 -52.9 L 58.5 -52.9 L 58.5 -52.9 Q 56.8 -52.9 55.8 -51.9 L 55.8 -51.9 L 55.8 -51.9 Q 54.7 -50.9 54.6 -49.8 L 54.6 -49.8 L 54.4 -48.8 L 54.4 -48.8 Q 54.2 -45.9 54.2 -41.7 L 54.2 -41.7 L 54.2 -41.7 Q 54.2 -37.5 54.3 -35.2 L 54.3 -35.2 L 54.3 -35.2 Q 54.4 -32.9 54.6 -31.6 L 54.6 -31.6 L 54.6 -31.6 Q 54.7 -30.2 54.7 -30 L 54.7 -30 L 54.7 -30 Q 54.7 -28.2 52.4 -27.2 L 52.4 -27.2 L 52.4 -27.2 Q 50.2 -26.3 48.1 -26.3 L 48.1 -26.3 L 48.1 -26.3 Q 47 -26.3 47 -27.2 Z M 93.4 -46.8 L 93.4 -46.8 L 93.3 -38.6 L 93.3 -38.6 Q 93.3 -30.1 95.1 -28.3 L 95.1 -28.3 L 95.1 -28.3 Q 95.4 -28.1 95.4 -27.7 L 95.4 -27.7 L 95.4 -27.7 Q 95.4 -26.8 91.3 -26.8 L 91.3 -26.8 L 91.3 -26.8 Q 87.1 -26.8 86.9 -29.2 L 86.9 -29.2 L 86.9 -29.2 Q 86.8 -29.8 86.8 -31.6 L 86.8 -31.6 L 87.1 -41.8 L 87.1 -41.8 Q 87.1 -42.3 86.6 -42.3 L 86.6 -42.3 L 86.6 -42.3 Q 83.5 -42.3 80.8 -40.5 L 80.8 -40.5 L 80.8 -40.5 Q 78.1 -38.8 78.1 -36.1 L 78.1 -36.1 L 78.1 -36.1 Q 78.1 -34.7 78.9 -33.8 L 78.9 -33.8 L 78.9 -33.8 Q 79.6 -32.8 80.8 -32.8 L 80.8 -32.8 L 80.8 -32.8 Q 81.9 -32.8 82.6 -33.3 L 82.6 -33.3 L 82.6 -33.3 Q 83.4 -33.7 83.5 -33.8 L 83.5 -33.8 L 83.5 -33.8 Q 84.6 -33.6 84.6 -31.5 L 84.6 -31.5 L 84.6 -31.5 Q 84.6 -29.3 82.6 -28 L 82.6 -28 L 82.6 -28 Q 80.6 -26.7 78.4 -26.7 L 78.4 -26.7 L 78.4 -26.7 Q 76.2 -26.7 74.7 -27.5 L 74.7 -27.5 L 74.7 -27.5 Q 73.1 -28.3 72.4 -29.2 L 72.4 -29.2 L 72.4 -29.2 Q 71.7 -30.2 71.3 -31.4 L 71.3 -31.4 L 71.3 -31.4 Q 70.8 -32.9 70.8 -34 L 70.8 -34 L 70.8 -34 Q 70.8 -38.4 73.6 -41.1 L 73.6 -41.1 L 73.6 -41.1 Q 76.4 -43.8 80.9 -45 L 80.9 -45 L 80.9 -45 Q 86.7 -46.1 86.9 -47.1 L 86.9 -47.1 L 86.9 -47.1 Q 87.1 -47.8 87.1 -49.4 L 87.1 -49.4 L 87.1 -49.4 Q 87.1 -52.8 83.7 -52.8 L 83.7 -52.8 L 83.7 -52.8 Q 82.2 -52.8 81 -51.9 L 81 -51.9 L 81 -51.9 Q 79.9 -51 79.9 -49.6 L 79.9 -49.6 L 80.3 -48 L 80.3 -48 Q 80.2 -46.9 78 -46.8 L 78 -46.8 L 77.3 -46.7 L 77.3 -46.7 Q 75.4 -46.7 74.2 -47.7 L 74.2 -47.7 L 74.2 -47.7 Q 73.1 -48.6 73.1 -50.2 L 73.1 -50.2 L 73.1 -50.2 Q 73.1 -51.2 73.8 -52.5 L 73.8 -52.5 L 73.8 -52.5 Q 74.5 -53.7 75.5 -54.5 L 75.5 -54.5 L 75.5 -54.5 Q 76.5 -55.3 78.6 -55.9 L 78.6 -55.9 L 78.6 -55.9 Q 80.8 -56.5 82.8 -56.5 L 82.8 -56.5 L 82.8 -56.5 Q 84.8 -56.5 85.8 -56.4 L 85.8 -56.4 L 85.8 -56.4 Q 86.9 -56.2 88.8 -55.7 L 88.8 -55.7 L 88.8 -55.7 Q 90.7 -55.3 92 -53.9 L 92 -53.9 L 92 -53.9 Q 93.2 -52.6 93.3 -51.1 L 93.3 -51.1 L 93.3 -51.1 Q 93.4 -49.6 93.4 -46.8 Z M 101.5 -53.4 L 101.5 -53.4 L 101.5 -53.4 Q 102.9 -54.8 105.2 -55.8 L 105.2 -55.8 L 105.2 -55.8 Q 107.5 -56.8 109.7 -56.8 L 109.7 -56.8 L 109.7 -56.8 Q 111.8 -56.8 113.9 -55.8 L 113.9 -55.8 L 113.9 -55.8 Q 114.2 -55.8 114.3 -56 L 114.3 -56 L 114.3 -56 Q 116 -57.6 119.2 -57.6 L 119.2 -57.6 L 119.2 -57.6 Q 120 -57.6 120 -56.9 L 120 -56.9 L 120 -56.9 Q 120 -56.9 119.8 -56.4 L 119.8 -56.4 L 119.8 -56.4 Q 119.7 -55.8 119.5 -54.9 L 119.5 -54.9 L 119.5 -54.9 Q 119.3 -53.9 119.2 -52.5 L 119.2 -52.5 L 119.2 -52.5 Q 118.7 -48.8 118.7 -44.4 L 118.7 -44.4 L 118.7 -44.4 Q 118.7 -40 118.7 -35.6 L 118.7 -35.6 L 118.9 -22.1 L 118.9 -22.1 Q 118.9 -15.7 115.5 -11.4 L 115.5 -11.4 L 115.5 -11.4 Q 114.2 -9.6 111.5 -8.4 L 111.5 -8.4 L 111.5 -8.4 Q 108.8 -7.1 105.1 -7.1 L 105.1 -7.1 L 105.1 -7.1 Q 104.3 -7.6 104.3 -8.1 L 104.3 -8.1 L 104.3 -8.1 Q 104.3 -8.6 105 -8.9 L 105 -8.9 L 105 -8.9 Q 109 -10.8 110.7 -17.7 L 110.7 -17.7 L 110.7 -17.7 Q 112.5 -24.7 112.5 -38.8 L 112.5 -38.8 L 112.3 -47.8 L 112.2 -52.1 L 112.2 -52.1 Q 112.2 -52.7 110.4 -53 L 110.4 -53 L 110.4 -53 Q 108.1 -53 106.5 -51.5 L 106.5 -51.5 L 106.5 -51.5 Q 104.9 -50 104.3 -47.5 L 104.3 -47.5 L 104.3 -47.5 Q 103.3 -43.6 103.3 -40.8 L 103.3 -40.8 L 103.3 -40.8 Q 103.3 -37.9 104.2 -35.7 L 104.2 -35.7 L 104.2 -35.7 Q 105.2 -33.6 107.5 -33.6 L 107.5 -33.6 L 107.5 -33.6 Q 108.1 -33.6 108.7 -33.8 L 108.7 -33.8 L 108.7 -33.8 Q 109.2 -34.1 109.4 -34.1 L 109.4 -34.1 L 109.4 -34.1 Q 110 -34.1 110 -32.8 L 110 -32.8 L 110 -32.8 Q 110 -31.5 109.8 -30.7 L 109.8 -30.7 L 109.8 -30.7 Q 109.7 -29.9 109.1 -29 L 109.1 -29 L 109.1 -29 Q 107.8 -26.9 104.1 -26.9 L 104.1 -26.9 L 104.1 -26.9 Q 100.4 -26.9 98.8 -29.5 L 98.8 -29.5 L 98.8 -29.5 Q 97.1 -32.3 96.9 -34.5 L 96.9 -34.5 L 96.9 -34.5 Q 96.5 -37.7 96.5 -38.8 L 96.5 -38.8 L 96.5 -38.8 Q 96.5 -39.8 96.5 -40.4 L 96.5 -40.4 L 96.5 -40.4 Q 96.5 -41 96.8 -42.8 L 96.8 -42.8 L 96.8 -42.8 Q 97.1 -44.6 97.6 -46.3 L 97.6 -46.3 L 97.6 -46.3 Q 98.1 -47.9 99.1 -49.9 L 99.1 -49.9 L 99.1 -49.9 Q 100.1 -51.9 101.5 -53.4 Z M 128.9 -43.8 L 128.9 -43.8 L 129 -42.2 L 129 -42.2 Q 129 -41.8 129.5 -41.8 L 129.5 -41.8 L 129.5 -41.8 Q 131.5 -42 133.1 -42.9 L 133.1 -42.9 L 133.1 -42.9 Q 134.6 -43.7 135.4 -44.8 L 135.4 -44.8 L 135.4 -44.8 Q 136.9 -47.2 137 -48.9 L 137 -48.9 L 137.1 -49.7 L 137.1 -49.7 Q 137.1 -53.2 134.4 -53.2 L 134.4 -53.2 L 134.4 -53.2 Q 132.3 -53.2 131 -51.4 L 131 -51.4 L 131 -51.4 Q 128.9 -48.5 128.9 -43.8 Z M 142.9 -35.3 L 142.9 -35.3 L 142.9 -35.3 Q 142.9 -32.9 141.9 -31 L 141.9 -31 L 141.9 -31 Q 140.9 -29.2 139.6 -28.4 L 139.6 -28.4 L 139.6 -28.4 Q 138.4 -27.5 136.7 -27 L 136.7 -27 L 136.7 -27 Q 134.6 -26.3 132.7 -26.3 L 132.7 -26.3 L 132.7 -26.3 Q 127.3 -26.3 124.8 -30.4 L 124.8 -30.4 L 124.8 -30.4 Q 122.2 -34.4 122.2 -40.6 L 122.2 -40.6 L 122.2 -40.6 Q 122.2 -46.9 125.4 -51.7 L 125.4 -51.7 L 125.4 -51.7 Q 128.5 -56.6 134.9 -56.6 L 134.9 -56.6 L 134.9 -56.6 Q 140.6 -56.6 142.7 -52.6 L 142.7 -52.6 L 142.7 -52.6 Q 143.5 -51 143.5 -49.7 L 143.5 -49.7 L 143.5 -49.7 Q 143.5 -48.3 143.4 -47.5 L 143.4 -47.5 L 143.4 -47.5 Q 143.3 -46.7 142.5 -45.1 L 142.5 -45.1 L 142.5 -45.1 Q 141.7 -43.5 140.4 -42.2 L 140.4 -42.2 L 140.4 -42.2 Q 139.2 -40.9 136.4 -39.8 L 136.4 -39.8 L 136.4 -39.8 Q 133.7 -38.6 129.9 -38.2 L 129.9 -38.2 L 129.9 -38.2 Q 129.4 -38.2 129.4 -37.8 L 129.4 -37.8 L 129.4 -37.8 Q 129.4 -37.2 129.8 -36.1 L 129.8 -36.1 L 129.8 -36.1 Q 130.3 -35 130.8 -34.2 L 130.8 -34.2 L 130.8 -34.2 Q 132.2 -32.4 134.9 -32.4 L 134.9 -32.4 L 134.9 -32.4 Q 137.7 -32.4 139.6 -34.2 L 139.6 -34.2 L 139.6 -34.2 Q 140.6 -35.2 141.3 -36.6 L 141.3 -36.6 L 141.3 -36.6 Q 141.5 -37.1 141.9 -37.1 L 141.9 -37.1 L 141.9 -37.1 Q 142.4 -37.1 142.6 -36.4 L 142.6 -36.4 L 142.6 -36.4 Q 142.9 -35.7 142.9 -35.3 Z M 165.8 -36.3 L 165.8 -36.3 L 165.8 -36.3 Q 165.8 -33.6 164.8 -31.5 L 164.8 -31.5 L 164.8 -31.5 Q 163.7 -29.5 162.4 -28.5 L 162.4 -28.5 L 162.4 -28.5 Q 161 -27.6 159.2 -27 L 159.2 -27 L 159.2 -27 Q 156.8 -26.2 154.8 -26.2 L 154.8 -26.2 L 154.8 -26.2 Q 150.6 -26.2 147.9 -27.8 L 147.9 -27.8 L 147.9 -27.8 Q 145.1 -29.5 145.1 -33.1 L 145.1 -33.1 L 145.1 -33.1 Q 145.1 -35.2 146.3 -36.5 L 146.3 -36.5 L 146.3 -36.5 Q 148.1 -38.5 150.6 -38.5 L 150.6 -38.5 L 150.6 -38.5 Q 151.3 -38.5 151.3 -37.8 L 151.3 -37.8 L 151.3 -37.8 Q 151.3 -37.7 151 -36.8 L 151 -36.8 L 151 -36.8 Q 150.7 -35.9 150.7 -34.5 L 150.7 -34.5 L 150.7 -34.5 Q 150.7 -33.1 151.9 -32 L 151.9 -32 L 151.9 -32 Q 153 -30.9 154.6 -30.9 L 154.6 -30.9 L 154.6 -30.9 Q 156.2 -30.9 157.1 -31.4 L 157.1 -31.4 L 157.1 -31.4 Q 158.1 -32 158.5 -32.8 L 158.5 -32.8 L 158.5 -32.8 Q 159.1 -34 159.1 -35 L 159.1 -35 L 159.1 -35 Q 159.1 -36.8 157.2 -38.2 L 157.2 -38.2 L 157.2 -38.2 Q 155.4 -39.5 153.1 -40.3 L 153.1 -40.3 L 153.1 -40.3 Q 150.9 -41.1 149 -42.9 L 149 -42.9 L 149 -42.9 Q 147.2 -44.6 147.2 -47.3 L 147.2 -47.3 L 147.2 -47.3 Q 147.2 -51.9 150.1 -54.2 L 150.1 -54.2 L 150.1 -54.2 Q 153 -56.5 158 -56.5 L 158 -56.5 L 158 -56.5 Q 160.2 -56.5 162.6 -55.9 L 162.6 -55.9 L 162.6 -55.9 Q 165 -55.3 165 -53.9 L 165 -53.9 L 165 -53.9 Q 165 -52.5 164.5 -51.2 L 164.5 -51.2 L 164.5 -51.2 Q 164 -50 163.3 -50 L 163.3 -50 L 163.3 -50 Q 162.9 -50 162.8 -50.3 L 162.8 -50.3 L 162.8 -50.3 Q 162.6 -50.6 162.3 -51 L 162.3 -51 L 162.3 -51 Q 162 -51.4 160.8 -52 L 160.8 -52 L 160.8 -52 Q 159.6 -52.6 158.7 -52.6 L 158.7 -52.6 L 158.7 -52.6 Q 157.8 -52.6 157.6 -52.5 L 157.6 -52.5 L 157.6 -52.5 Q 157.3 -52.5 156.6 -52.4 L 156.6 -52.4 L 156.6 -52.4 Q 155.9 -52.2 155.3 -51.9 L 155.3 -51.9 L 155.3 -51.9 Q 153.8 -51 153.8 -49.4 L 153.8 -49.4 L 153.8 -49.4 Q 153.8 -48.4 154.3 -47.9 L 154.3 -47.9 L 154.3 -47.9 Q 154.7 -47.5 155 -47.2 L 155 -47.2 L 155 -47.2 Q 155.2 -46.9 155.9 -46.6 L 155.9 -46.6 L 155.9 -46.6 Q 156.5 -46.2 156.8 -46.1 L 156.8 -46.1 L 156.8 -46.1 Q 157 -46 157.9 -45.6 L 157.9 -45.6 L 157.9 -45.6 Q 158.8 -45.2 159.1 -45 L 159.1 -45 L 159.1 -45 Q 165.8 -41.8 165.8 -36.3 Z M 202.3 -40.3 L 202.1 -46.4 L 202.1 -46.4 Q 202.1 -47.8 200.3 -48 L 200.3 -48 L 195.8 -48 L 195.8 -48 Q 195.3 -48 195.3 -48.3 L 195.3 -48.3 L 195.3 -48.3 Q 195.7 -50.1 196.6 -51.3 L 196.6 -51.3 L 196.6 -51.3 Q 197.6 -52.4 198.2 -52.5 L 198.2 -52.5 L 198.2 -52.5 Q 200 -52.8 204.1 -52.8 L 204.1 -52.8 L 204.1 -52.8 Q 208.2 -52.8 209.2 -52.7 L 209.2 -52.7 L 209.2 -52.7 Q 210.3 -52.7 210.5 -52.5 L 210.5 -52.5 L 210.5 -52.5 Q 210.8 -52.2 210.8 -51.8 L 210.8 -51.8 L 210.8 -51.8 Q 210.8 -51.4 210.6 -46.5 L 210.6 -46.5 L 210.6 -46.5 Q 210.3 -41.6 210.3 -37.7 L 210.3 -37.7 L 210.3 -37.7 Q 210.3 -33.8 210.6 -32.8 L 210.6 -32.8 L 210.6 -32.8 Q 210.8 -31.8 210.8 -31.6 L 210.8 -31.6 L 210.8 -31.6 Q 210.8 -30.6 209 -29.4 L 209 -29.4 L 209 -29.4 Q 207.3 -28.2 203.6 -27.3 L 203.6 -27.3 L 203.6 -27.3 Q 200 -26.4 195.7 -26.4 L 195.7 -26.4 L 195.7 -26.4 Q 189.8 -26.4 185.6 -30.4 L 185.6 -30.4 L 185.6 -30.4 Q 182.2 -33.6 181 -37.4 L 181 -37.4 L 181 -37.4 Q 179.7 -41.2 179.7 -48 L 179.7 -48 L 179.7 -48 Q 179.7 -73.4 198.4 -73.4 L 198.4 -73.4 L 198.4 -73.4 Q 201.5 -73.4 204 -72.8 L 204 -72.8 L 204 -72.8 Q 206.5 -72.1 208.4 -70.1 L 208.4 -70.1 L 208.4 -70.1 Q 210.3 -68.2 210.3 -65.1 L 210.3 -65.1 L 210.3 -65.1 Q 210.3 -63.5 209.6 -61.9 L 209.6 -61.9 L 209.6 -61.9 Q 208.5 -58.5 204.5 -58.5 L 204.5 -58.5 L 204.5 -58.5 Q 202.3 -58.5 201.2 -59.6 L 201.2 -59.6 L 201.2 -59.6 Q 200.1 -60.7 200.1 -62.7 L 200.1 -62.7 L 200.1 -62.7 Q 200.1 -63.5 200.9 -63.7 L 200.9 -63.7 L 200.9 -63.7 Q 202.1 -64.4 202.1 -66.1 L 202.1 -66.1 L 202.1 -66.1 Q 202.1 -67.7 200.9 -68.7 L 200.9 -68.7 L 200.9 -68.7 Q 199.6 -69.6 198.2 -69.6 L 198.2 -69.6 L 198.2 -69.6 Q 195.1 -69.6 193 -67.4 L 193 -67.4 L 193 -67.4 Q 190.9 -65.2 189.9 -61.6 L 189.9 -61.6 L 189.9 -61.6 Q 188.3 -55.2 188.3 -48.5 L 188.3 -48.5 L 188.3 -48.5 Q 188.3 -37.7 193.6 -34.1 L 193.6 -34.1 L 193.6 -34.1 Q 195.6 -32.7 197.8 -32.7 L 197.8 -32.7 L 197.8 -32.7 Q 201.8 -32.7 202.1 -34.1 L 202.1 -34.1 L 202.1 -34.1 Q 202.3 -36.1 202.3 -40.3 L 202.3 -40.3 Z M 235.7 -46.8 L 235.7 -46.8 L 235.5 -38.6 L 235.5 -38.6 Q 235.5 -30.1 237.4 -28.3 L 237.4 -28.3 L 237.4 -28.3 Q 237.7 -28.1 237.7 -27.7 L 237.7 -27.7 L 237.7 -27.7 Q 237.7 -26.8 233.5 -26.8 L 233.5 -26.8 L 233.5 -26.8 Q 229.4 -26.8 229.1 -29.2 L 229.1 -29.2 L 229.1 -29.2 Q 229.1 -29.8 229.1 -31.6 L 229.1 -31.6 L 229.3 -41.8 L 229.3 -41.8 Q 229.3 -42.3 228.8 -42.3 L 228.8 -42.3 L 228.8 -42.3 Q 225.8 -42.3 223.1 -40.5 L 223.1 -40.5 L 223.1 -40.5 Q 220.4 -38.8 220.4 -36.1 L 220.4 -36.1 L 220.4 -36.1 Q 220.4 -34.7 221.1 -33.8 L 221.1 -33.8 L 221.1 -33.8 Q 221.9 -32.8 223 -32.8 L 223 -32.8 L 223 -32.8 Q 224.2 -32.8 224.9 -33.3 L 224.9 -33.3 L 224.9 -33.3 Q 225.6 -33.7 225.8 -33.8 L 225.8 -33.8 L 225.8 -33.8 Q 226.8 -33.6 226.8 -31.5 L 226.8 -31.5 L 226.8 -31.5 Q 226.8 -29.3 224.9 -28 L 224.9 -28 L 224.9 -28 Q 222.9 -26.7 220.7 -26.7 L 220.7 -26.7 L 220.7 -26.7 Q 218.5 -26.7 217 -27.5 L 217 -27.5 L 217 -27.5 Q 215.4 -28.3 214.7 -29.2 L 214.7 -29.2 L 214.7 -29.2 Q 214 -30.2 213.5 -31.4 L 213.5 -31.4 L 213.5 -31.4 Q 213.1 -32.9 213.1 -34 L 213.1 -34 L 213.1 -34 Q 213.1 -38.4 215.9 -41.1 L 215.9 -41.1 L 215.9 -41.1 Q 218.7 -43.8 223.1 -45 L 223.1 -45 L 223.1 -45 Q 229 -46.1 229.2 -47.1 L 229.2 -47.1 L 229.2 -47.1 Q 229.4 -47.8 229.4 -49.4 L 229.4 -49.4 L 229.4 -49.4 Q 229.4 -52.8 225.9 -52.8 L 225.9 -52.8 L 225.9 -52.8 Q 224.5 -52.8 223.3 -51.9 L 223.3 -51.9 L 223.3 -51.9 Q 222.2 -51 222.2 -49.6 L 222.2 -49.6 L 222.6 -48 L 222.6 -48 Q 222.4 -46.9 220.2 -46.8 L 220.2 -46.8 L 219.5 -46.7 L 219.5 -46.7 Q 217.6 -46.7 216.5 -47.7 L 216.5 -47.7 L 216.5 -47.7 Q 215.4 -48.6 215.4 -50.2 L 215.4 -50.2 L 215.4 -50.2 Q 215.4 -51.2 216.1 -52.5 L 216.1 -52.5 L 216.1 -52.5 Q 216.7 -53.7 217.8 -54.5 L 217.8 -54.5 L 217.8 -54.5 Q 218.8 -55.3 220.9 -55.9 L 220.9 -55.9 L 220.9 -55.9 Q 223.1 -56.5 225 -56.5 L 225 -56.5 L 225 -56.5 Q 227 -56.5 228.1 -56.4 L 228.1 -56.4 L 228.1 -56.4 Q 229.2 -56.2 231.1 -55.7 L 231.1 -55.7 L 231.1 -55.7 Q 233 -55.3 234.2 -53.9 L 234.2 -53.9 L 234.2 -53.9 Q 235.5 -52.6 235.6 -51.1 L 235.6 -51.1 L 235.6 -51.1 Q 235.7 -49.6 235.7 -46.8 Z M 247.6 -64.2 L 247.6 -64.2 L 247.2 -40.7 L 247.2 -40.7 Q 247.2 -29.7 247.9 -27.5 L 247.9 -27.5 L 247.9 -27.5 Q 248.1 -27.1 248.1 -26.7 L 248.1 -26.7 L 248.1 -26.7 Q 248.1 -26 246.2 -26 L 246.2 -26 L 246.2 -26 Q 244.4 -26 242.1 -26.9 L 242.1 -26.9 L 242.1 -26.9 Q 239.8 -27.8 239.8 -29.3 L 239.8 -29.3 L 239.8 -29.3 Q 241.1 -38.2 241.1 -53.2 L 241.1 -53.2 L 240.9 -63 L 240.9 -63 Q 240.7 -64.8 240.1 -66.1 L 240.1 -66.1 L 240.1 -66.1 Q 239.5 -67.4 238.9 -67.7 L 238.9 -67.7 L 238.4 -68.1 L 238.4 -68.1 Q 238 -68.3 238 -68.6 L 238 -68.6 L 238 -68.6 Q 238 -69.5 240.8 -70.9 L 240.8 -70.9 L 240.8 -70.9 Q 243.5 -72.2 246.2 -72.2 L 246.2 -72.2 L 246.2 -72.2 Q 247.2 -72.2 247.3 -71.5 L 247.3 -71.5 L 247.3 -71.5 Q 247.6 -69.8 247.6 -64.2 Z M 260.6 -64.2 L 260.6 -64.2 L 260.2 -40.7 L 260.2 -40.7 Q 260.2 -29.7 260.9 -27.5 L 260.9 -27.5 L 260.9 -27.5 Q 261.1 -27.1 261.1 -26.7 L 261.1 -26.7 L 261.1 -26.7 Q 261.1 -26 259.2 -26 L 259.2 -26 L 259.2 -26 Q 257.4 -26 255.1 -26.9 L 255.1 -26.9 L 255.1 -26.9 Q 252.8 -27.8 252.8 -29.3 L 252.8 -29.3 L 252.8 -29.3 Q 254.1 -38.2 254.1 -53.2 L 254.1 -53.2 L 253.8 -63 L 253.8 -63 Q 253.7 -64.8 253.1 -66.1 L 253.1 -66.1 L 253.1 -66.1 Q 252.5 -67.4 251.9 -67.7 L 251.9 -67.7 L 251.4 -68.1 L 251.4 -68.1 Q 251 -68.3 251 -68.6 L 251 -68.6 L 251 -68.6 Q 251 -69.5 253.8 -70.9 L 253.8 -70.9 L 253.8 -70.9 Q 256.5 -72.2 259.2 -72.2 L 259.2 -72.2 L 259.2 -72.2 Q 260.2 -72.2 260.3 -71.5 L 260.3 -71.5 L 260.3 -71.5 Q 260.6 -69.8 260.6 -64.2 Z M 271 -43.8 L 271 -43.8 L 271.1 -42.2 L 271.1 -42.2 Q 271.1 -41.8 271.6 -41.8 L 271.6 -41.8 L 271.6 -41.8 Q 273.6 -42 275.2 -42.9 L 275.2 -42.9 L 275.2 -42.9 Q 276.7 -43.7 277.5 -44.8 L 277.5 -44.8 L 277.5 -44.8 Q 279 -47.2 279.1 -48.9 L 279.1 -48.9 L 279.2 -49.7 L 279.2 -49.7 Q 279.2 -53.2 276.4 -53.2 L 276.4 -53.2 L 276.4 -53.2 Q 274.4 -53.2 273.1 -51.4 L 273.1 -51.4 L 273.1 -51.4 Q 271 -48.5 271 -43.8 Z M 285 -35.3 L 285 -35.3 L 285 -35.3 Q 285 -32.9 284 -31 L 284 -31 L 284 -31 Q 283 -29.2 281.7 -28.4 L 281.7 -28.4 L 281.7 -28.4 Q 280.5 -27.5 278.8 -27 L 278.8 -27 L 278.8 -27 Q 276.7 -26.3 274.8 -26.3 L 274.8 -26.3 L 274.8 -26.3 Q 269.4 -26.3 266.8 -30.4 L 266.8 -30.4 L 266.8 -30.4 Q 264.3 -34.4 264.3 -40.6 L 264.3 -40.6 L 264.3 -40.6 Q 264.3 -46.9 267.4 -51.7 L 267.4 -51.7 L 267.4 -51.7 Q 270.6 -56.6 277 -56.6 L 277 -56.6 L 277 -56.6 Q 282.7 -56.6 284.8 -52.6 L 284.8 -52.6 L 284.8 -52.6 Q 285.6 -51 285.6 -49.7 L 285.6 -49.7 L 285.6 -49.7 Q 285.6 -48.3 285.5 -47.5 L 285.5 -47.5 L 285.5 -47.5 Q 285.3 -46.7 284.6 -45.1 L 284.6 -45.1 L 284.6 -45.1 Q 283.8 -43.5 282.5 -42.2 L 282.5 -42.2 L 282.5 -42.2 Q 281.2 -40.9 278.5 -39.8 L 278.5 -39.8 L 278.5 -39.8 Q 275.7 -38.6 272 -38.2 L 272 -38.2 L 272 -38.2 Q 271.5 -38.2 271.5 -37.8 L 271.5 -37.8 L 271.5 -37.8 Q 271.5 -37.2 271.9 -36.1 L 271.9 -36.1 L 271.9 -36.1 Q 272.3 -35 272.9 -34.2 L 272.9 -34.2 L 272.9 -34.2 Q 274.3 -32.4 277 -32.4 L 277 -32.4 L 277 -32.4 Q 279.8 -32.4 281.7 -34.2 L 281.7 -34.2 L 281.7 -34.2 Q 282.7 -35.2 283.4 -36.6 L 283.4 -36.6 L 283.4 -36.6 Q 283.6 -37.1 284 -37.1 L 284 -37.1 L 284 -37.1 Q 284.4 -37.1 284.7 -36.4 L 284.7 -36.4 L 284.7 -36.4 Q 285 -35.7 285 -35.3 Z M 307.7 -49.6 L 307.4 -44.7 L 307.6 -42.5 L 307.6 -42.5 Q 307.6 -41.3 305.3 -41.3 L 305.3 -41.3 L 305.3 -41.3 Q 300.6 -41.3 300.6 -44.8 L 300.6 -44.8 L 300.6 -44.8 Q 300.6 -45.6 301.1 -47.1 L 301.1 -47.1 L 301.1 -47.1 Q 301.5 -48.5 301.5 -49.6 L 301.5 -49.6 L 301.5 -49.6 Q 301.5 -50.7 300.9 -51.5 L 300.9 -51.5 L 300.9 -51.5 Q 300.2 -52.3 299 -52.3 L 299 -52.3 L 299 -52.3 Q 297.8 -52.3 297 -51.5 L 297 -51.5 L 297 -51.5 Q 296.1 -50.6 295.9 -49.7 L 295.9 -49.7 L 295.6 -48.8 L 295.6 -48.8 Q 295.3 -46.8 295.3 -42.2 L 295.3 -42.2 L 295.3 -42.2 Q 295.3 -37.5 295.4 -34.9 L 295.4 -34.9 L 295.4 -34.9 Q 295.5 -32.2 295.6 -31.2 L 295.6 -31.2 L 295.6 -31.2 Q 295.8 -30.2 295.8 -30.1 L 295.8 -30.1 L 295.8 -30.1 Q 295.8 -28.5 293.8 -27.5 L 293.8 -27.5 L 293.8 -27.5 Q 291.8 -26.5 289.8 -26.5 L 289.8 -26.5 L 289.8 -26.5 Q 287.8 -26.5 287.8 -27.3 L 287.8 -27.3 L 288.2 -29.3 L 288.2 -29.3 Q 289 -34.9 289 -43.8 L 289 -43.8 L 289 -43.8 Q 289 -52.8 288.4 -56 L 288.4 -56 L 288.4 -56 Q 288.4 -56.7 289.8 -56.7 L 289.8 -56.7 L 289.8 -56.7 Q 293.2 -56.7 294.4 -54.4 L 294.4 -54.4 L 294.4 -54.4 Q 294.4 -54.1 294.6 -54.1 L 294.6 -54.1 L 294.6 -54.1 Q 294.7 -54.1 295.4 -54.7 L 295.4 -54.7 L 295.4 -54.7 Q 297.6 -56.4 300.4 -56.4 L 300.4 -56.4 L 300.4 -56.4 Q 302.2 -56.4 304 -55.7 L 304 -55.7 L 304 -55.7 Q 307.7 -54.2 307.7 -49.6 L 307.7 -49.6 Z M 321.9 -9.8 L 321.9 -9.8 L 321.9 -9.8 Q 321.9 -9.1 321.1 -9.1 L 321.1 -9.1 L 321 -9.1 L 321 -9.1 Q 318.9 -9.1 316.3 -10.5 L 316.3 -10.5 L 316.3 -10.5 Q 313.6 -12 313.6 -13.9 L 313.6 -13.9 L 313.6 -13.9 Q 313.6 -15.8 316.1 -20.6 L 316.1 -20.6 L 316.1 -20.6 Q 318.5 -25.4 318.5 -27 L 318.5 -27 L 318.5 -27 Q 318.5 -28.7 316.8 -33.2 L 316.8 -33.2 L 316.8 -33.2 Q 314.7 -39 313.5 -42.7 L 313.5 -42.7 L 313.5 -42.7 Q 312.2 -46.3 310.8 -49.1 L 310.8 -49.1 L 310.8 -49.1 Q 309.3 -51.9 308.7 -52.4 L 308.7 -52.4 L 308.1 -52.8 L 308.1 -52.8 Q 307.4 -53.2 307.4 -53.7 L 307.4 -53.7 L 307.4 -53.7 Q 307.4 -54.6 310.1 -55.5 L 310.1 -55.5 L 310.1 -55.5 Q 312.9 -56.4 315 -56.4 L 315 -56.4 L 315 -56.4 Q 316 -56.4 316.6 -54.9 L 316.6 -54.9 L 316.6 -54.9 Q 317.8 -51.9 319.1 -46.6 L 319.1 -46.6 L 319.1 -46.6 Q 322.4 -35.7 323.2 -35.7 L 323.2 -35.7 L 323.2 -35.7 Q 323.8 -35.7 325.6 -40.2 L 325.6 -40.2 L 325.6 -40.2 Q 327.3 -44.6 327.3 -47.4 L 327.3 -47.4 L 327.3 -47.4 Q 327.3 -52.2 324.5 -53 L 324.5 -53 L 324.5 -53 Q 323.9 -53.2 323.9 -53.7 L 323.9 -53.7 L 323.9 -53.7 Q 323.9 -54.8 326.9 -55.9 L 326.9 -55.9 L 326.9 -55.9 Q 329.9 -56.9 332.3 -56.9 L 332.3 -56.9 L 332.3 -56.9 Q 334.4 -56.9 334.4 -54.2 L 334.4 -54.2 L 334.4 -54.2 Q 334.4 -52.1 333.5 -49.3 L 333.5 -49.3 L 333.5 -49.3 Q 332.6 -46.4 331.9 -44.8 L 331.9 -44.8 L 331.9 -44.8 Q 331.1 -43.2 328.1 -37.3 L 328.1 -37.3 L 328.1 -37.3 Q 325 -31.3 323 -26.9 L 323 -26.9 L 323 -26.9 Q 320.9 -21.5 320.9 -15.9 L 320.9 -15.9 L 320.9 -15.9 Q 320.9 -13 321.4 -11.5 L 321.4 -11.5 L 321.4 -11.5 Q 321.9 -10 321.9 -9.8 Z"/></g></svg>